<?xml version="1.0" encoding="UTF-8" standalone="no"?>
<!-- Created with Inkscape (http://www.inkscape.org/) -->

<svg
   width="208.07463mm"
   height="251.33752mm"
   viewBox="0 0 208.07463 251.33753"
   version="1.1"
   id="svg1"
   inkscape:version="1.4.3 (0d15f75042, 2025-12-25)"
   sodipodi:docname="cview.svg"
   xmlns:inkscape="http://www.inkscape.org/namespaces/inkscape"
   xmlns:sodipodi="http://sodipodi.sourceforge.net/DTD/sodipodi-0.dtd"
   xmlns="http://www.w3.org/2000/svg"
   xmlns:svg="http://www.w3.org/2000/svg">
  <sodipodi:namedview
     id="namedview1"
     pagecolor="#ffffff"
     bordercolor="#000000"
     borderopacity="0.25"
     inkscape:showpageshadow="2"
     inkscape:pageopacity="0.0"
     inkscape:pagecheckerboard="0"
     inkscape:deskcolor="#d1d1d1"
     inkscape:document-units="mm"
     inkscape:zoom="0.9948027"
     inkscape:cx="394.04799"
     inkscape:cy="474.46594"
     inkscape:window-width="1920"
     inkscape:window-height="1168"
     inkscape:window-x="0"
     inkscape:window-y="0"
     inkscape:window-maximized="1"
     inkscape:current-layer="layer1" />
  <defs
     id="defs1" />
  <g
     inkscape:label="Layer 1"
     inkscape:groupmode="layer"
     id="layer1"
     transform="translate(-14.552081,82.786332)">
    <g
       id="g2"
       style="stroke:currentColor;stroke-opacity:1">
      <path
         style="baseline-shift:baseline;display:inline;overflow:visible;vector-effect:none;fill:currentColor;stroke:none;enable-background:accumulate;stop-color:#000000;stop-opacity:1;opacity:1"
         d="m 56.78125,79.433594 -1.888672,3.490234 35.806641,19.369142 26.673831,-10.964845 -1.50977,-3.671875 -24.931639,10.25 z"
         id="path36" />
      <path
         style="baseline-shift:baseline;display:inline;overflow:visible;vector-effect:none;fill:currentColor;stroke:none;enable-background:accumulate;stop-color:#000000;stop-opacity:1;opacity:1"
         d="m 144.16406,-36.685547 -0.28711,19.783203 3.96875,0.05664 0.28711,-19.78125 z"
         id="path51" />
      <path
         style="baseline-shift:baseline;display:inline;overflow:visible;vector-effect:none;fill:currentColor;stroke:none;enable-background:accumulate;stop-color:#000000;stop-opacity:1;opacity:1"
         d="m 139.56641,117.15039 -23.84961,40.26758 h 3.76758 v -3.46875 l 1.42187,2.49609 22.07617,-37.27148 z"
         id="path46" />
      <path
         style="baseline-shift:baseline;display:inline;overflow:visible;vector-effect:none;fill:currentColor;stroke:none;enable-background:accumulate;stop-color:#000000;stop-opacity:1;opacity:1"
         d="m 179.08398,63.1875 -3.94531,0.431641 2.20313,20.138671 25.88476,-0.308593 -0.0488,-3.96875 -22.28125,0.265625 z"
         id="path48" />
      <path
         style="baseline-shift:baseline;display:inline;overflow:visible;vector-effect:none;fill:currentColor;stroke:none;enable-background:accumulate;stop-color:#000000;stop-opacity:1;opacity:1"
         d="m 177.25586,59.388672 -58.08789,29.191406 1.78125,3.544922 56.01953,-28.150391 24.26758,16.271485 2.21094,-3.296875 z"
         id="path35" />
      <path
         style="baseline-shift:baseline;display:inline;overflow:visible;vector-effect:none;fill:currentColor;stroke:none;enable-background:accumulate;stop-color:#000000;stop-opacity:1;opacity:1"
         d="m 179.08008,79.480469 -33.58399,17.5625 -25.50586,-11.089844 -1.58398,3.638672 27.24805,11.845703 28.91601,-15.121094 -2.98047,38.488284 -32.32226,-8.61914 -37.58985,-1.03125 20.95508,-21.703128 -2.85547,-2.75586 -27.208981,28.181638 46.125001,1.26368 36.48633,9.72851 z"
         id="path47" />
      <path
         style="baseline-shift:baseline;display:inline;overflow:visible;vector-effect:none;fill:currentColor;stroke:none;enable-background:accumulate;stop-color:#000000;stop-opacity:1;opacity:1"
         d="m 176.38867,-46.972656 -1.99414,3.43164 34.24414,19.882813 -4.88086,18.4960936 -26.42969,19.2207034 -31.70507,-32.277344 -64.449222,37.5 L 44.453125,43.177734 22.480469,103.1543 61.685547,130.18164 118.83789,160.625 120.70508,157.12305 63.751953,126.78516 27.265625,101.63281 47.724609,45.783203 83.253906,22.660156 144.95312,-13.236328 176.89453,19.28125 207.23437,-2.7832031 213.24805,-25.572266 Z"
         id="path33" />
      <path
         style="baseline-shift:baseline;display:inline;overflow:visible;vector-effect:none;fill:currentColor;stroke:none;enable-background:accumulate;stop-color:#000000;stop-opacity:1;opacity:1"
         d="m 207.08594,81.109375 -3.75391,1.285156 6.6543,19.433599 -38.75391,24.08398 -50.99219,28.36133 1.92969,3.46875 51.07422,-28.40821 41.52148,-25.80078 z"
         id="path34" />
      <path
         style="baseline-shift:baseline;display:inline;overflow:visible;vector-effect:none;fill:currentColor;stroke:none;enable-background:accumulate;stop-color:#000000;stop-opacity:1;opacity:1"
         d="m 47.980469,43.882812 -3.783203,1.195313 10.607421,33.544922 3.785157,-1.197266 z"
         id="path37" />
      <path
         style="baseline-shift:baseline;display:inline;overflow:visible;vector-effect:none;fill:currentColor;stroke:none;enable-background:accumulate;stop-color:#000000;stop-opacity:1;opacity:1"
         d="m 26.732422,34.027344 -1.423828,3.703125 18.445312,7.095703 37.728516,24.294922 33.316408,18.380859 1.91797,-3.474609 L 83.517578,65.710937 45.558594,41.267578 Z"
         id="path44" />
      <path
         style="baseline-shift:baseline;display:inline;overflow:visible;vector-effect:none;fill:currentColor;stroke:none;enable-background:accumulate;stop-color:#000000;stop-opacity:1;opacity:1"
         d="m 80.40625,65.958984 -24.380859,13.244141 0.417968,4.183594 4.833985,46.218751 32.078125,-9.12305 21.861331,35.41992 3.37695,-2.08398 -23.4375,-37.97461 -30.423828,8.65234 -4.341797,-41.513668 -0.154297,-1.550781 22.064453,-11.984375 z"
         id="path45" />
      <path
         style="baseline-shift:baseline;display:inline;overflow:visible;vector-effect:none;fill:currentColor;stroke:none;enable-background:accumulate;stop-color:#000000;stop-opacity:1;opacity:1"
         d="m 176.63477,-47.601562 -30.49415,9.333984 1.16211,3.794922 25.69922,-7.867188 2.41211,36.9980471 V 16.097656 h 3.96875 V -5.4707031 Z"
         id="path40" />
      <path
         style="baseline-shift:baseline;display:inline;overflow:visible;vector-effect:none;fill:currentColor;stroke:none;enable-background:accumulate;stop-color:#000000;stop-opacity:1;opacity:1"
         d="m 146.76367,-15.892578 -1.23047,3.771484 28.60547,9.3417971 4.23438,-0.9082031 26.35742,2.5507813 0.38281,-3.9511719 -26.96875,-2.609375 -3.79297,0.8125 z"
         id="path41" />
      <path
         style="baseline-shift:baseline;display:inline;overflow:visible;vector-effect:none;fill:currentColor;stroke:none;enable-background:accumulate;stop-color:#000000;stop-opacity:1;opacity:1"
         d="M 59.693359,5.203125 57.714844,8.6425781 78.644531,20.683594 80.623047,17.244141 Z"
         id="path50" />
      <path
         style="baseline-shift:baseline;display:inline;overflow:visible;vector-effect:none;fill:currentColor;stroke:none;enable-background:accumulate;stop-color:#000000;stop-opacity:1;opacity:1"
         d="M 89.917969,-17.457031 57.019531,4.7734375 25.964844,31.802734 l 2.605468,2.992188 30.871094,-26.8691408 30.75,-20.7773442 26.763674,13.7968755 1.81836,-3.5273438 z"
         id="path42" />
      <path
         style="baseline-shift:baseline;display:inline;overflow:visible;vector-effect:none;fill:currentColor;stroke:none;enable-background:accumulate;stop-color:#000000;stop-opacity:1;opacity:1"
         d="m 27.046875,-24.373047 -3.773438,1.236328 21.216797,64.794922 3.771485,-1.236328 z"
         id="path43" />
      <path
         style="baseline-shift:baseline;display:inline;overflow:visible;vector-effect:none;fill:currentColor;stroke:none;enable-background:accumulate;stop-color:#000000;stop-opacity:1;opacity:1"
         d="m 22.316406,-25.1875 v 125.28711 h 3.96875 V -25.1875 Z"
         id="path38" />
      <path
         style="baseline-shift:baseline;display:inline;overflow:visible;vector-effect:none;fill:currentColor;stroke:none;enable-background:accumulate;stop-color:#000000;stop-opacity:1;opacity:1"
         d="M 60.707031,-48.824219 55.3125,5.1230469 45.322266,41.373047 l 3.826171,1.054687 10.080079,-36.5742184 4.925781,-49.2636716 24.140625,8.460937 0.529297,19.873047 -8.59375,35.806641 -0.289063,47.548828 8.97461,29.53125 3.796875,-1.154297 -8.798829,-28.955078 0.283204,-46.490235 8.607421,-35.86914 -0.615234,-23.130859 z"
         id="path49" />
      <g
         id="path32"
         style="opacity:1">
        <path
           style="baseline-shift:baseline;display:inline;overflow:visible;vector-effect:none;fill:#f1f1f1;stroke:none;enable-background:accumulate;stop-color:#000000;stop-opacity:1"
           d="m 118.3382,-73.067566 55.90687,27.523386 v 0"
           id="path1" />
        <path
           style="baseline-shift:baseline;display:inline;overflow:visible;vector-effect:none;fill:currentColor;stroke:none;enable-background:accumulate;stop-color:#000000;stop-opacity:1"
           d="m 119.21484,-74.847656 -1.7539,3.560547 55.9082,27.523437 1.75195,-3.560547 z"
           id="path3" />
      </g>
      <path
         style="baseline-shift:baseline;display:inline;overflow:visible;vector-effect:none;fill:currentColor;stroke:none;enable-background:accumulate;stop-color:#000000;stop-opacity:1;opacity:1"
         d="m 116.90234,-75.142578 -56.550778,27.271484 -33.90039,19.822266 2.003906,3.425781 L 62.21875,-44.365234 111.57813,-68.167969 87.195312,-34.34375 148.93359,-35 l -29.58007,-39.542969 -1.19727,0.896485 z m 0.89258,5.140625 23.27344,31.115234 -46.060548,0.492188 z"
         id="path39" />
    </g>
    <circle
       style="fill:currentColor;fill-opacity:1;stroke:none;stroke-width:0"
       id="circle2"
       cx="212.77098"
       cy="-24.507069"
       r="9.8557291" />
    <circle
       style="fill:currentColor;fill-opacity:1;stroke:none;stroke-width:0"
       id="circle3"
       cx="177.21994"
       cy="-4.1512289"
       r="9.8557291" />
    <circle
       style="fill:currentColor;fill-opacity:1;stroke:none;stroke-width:0"
       id="circle4"
       cx="205.31674"
       cy="-3.8645296"
       r="9.8557291" />
    <circle
       style="fill:currentColor;fill-opacity:1;stroke:none;stroke-width:0"
       id="circle5"
       cx="177.21996"
       cy="16.49131"
       r="9.8557291" />
    <circle
       style="fill:currentColor;fill-opacity:1;stroke:none;stroke-width:0"
       id="circle6"
       cx="174.92633"
       cy="-45.723007"
       r="9.8557291" />
    <circle
       style="fill:currentColor;fill-opacity:1;stroke:none;stroke-width:0"
       id="circle7"
       cx="145.68274"
       cy="-36.261845"
       r="9.8557291" />
    <circle
       style="fill:currentColor;fill-opacity:1;stroke:none;stroke-width:0"
       id="circle8"
       cx="145.68274"
       cy="-14.759197"
       r="9.8557291" />
    <circle
       style="fill:currentColor;fill-opacity:1;stroke:none;stroke-width:0"
       id="circle9"
       cx="118.15935"
       cy="0.14929992"
       r="9.8557291" />
    <circle
       style="fill:currentColor;fill-opacity:1;stroke:none;stroke-width:0"
       id="circle10"
       cx="82.321609"
       cy="21.078537"
       r="9.8557291" />
    <circle
       style="fill:currentColor;fill-opacity:1;stroke:none;stroke-width:0"
       id="circle11"
       cx="90.635963"
       cy="-14.759205"
       r="9.8557291" />
    <circle
       style="fill:currentColor;fill-opacity:1;stroke:none;stroke-width:0"
       id="circle12"
       cx="90.922668"
       cy="-35.975151"
       r="9.8557291" />
    <circle
       style="fill:currentColor;fill-opacity:1;stroke:none;stroke-width:0"
       id="circle13"
       cx="62.252468"
       cy="-45.723015"
       r="9.8557291" />
    <circle
       style="fill:currentColor;fill-opacity:1;stroke:none;stroke-width:0"
       id="circle14"
       cx="24.694513"
       cy="-24.507072"
       r="9.8557291" />
    <circle
       style="fill:currentColor;fill-opacity:1;stroke:none;stroke-width:0"
       id="circle15"
       cx="57.378532"
       cy="5.5966339"
       r="9.8557291" />
    <circle
       style="fill:currentColor;fill-opacity:1;stroke:none;stroke-width:0"
       id="circle16"
       cx="24.40781"
       cy="34.553532"
       r="9.8557291" />
    <circle
       style="fill:currentColor;fill-opacity:1;stroke:none;stroke-width:0"
       id="circle17"
       cx="46.197159"
       cy="43.727993"
       r="9.8557291" />
    <circle
       style="fill:currentColor;fill-opacity:1;stroke:none;stroke-width:0"
       id="circle18"
       cx="24.40781"
       cy="102.78858"
       r="9.8557291" />
    <circle
       style="fill:currentColor;fill-opacity:1;stroke:none;stroke-width:0"
       id="circle19"
       cx="57.378532"
       cy="81.859337"
       r="9.8557291" />
    <circle
       style="fill:currentColor;fill-opacity:1;stroke:none;stroke-width:0"
       id="circle20"
       cx="82.321602"
       cy="66.377434"
       r="9.8557291" />
    <circle
       style="fill:currentColor;fill-opacity:1;stroke:none;stroke-width:0"
       id="circle21"
       cx="90.349251"
       cy="99.061455"
       r="9.8557291" />
    <circle
       style="fill:currentColor;fill-opacity:1;stroke:none;stroke-width:0"
       id="circle22"
       cx="95.554123"
       cy="117.98378"
       r="9.8557291" />
    <circle
       style="fill:currentColor;fill-opacity:1;stroke:none;stroke-width:0"
       id="circle23"
       cx="63.443504"
       cy="128.30505"
       r="9.8557291" />
    <circle
       style="fill:currentColor;fill-opacity:1;stroke:none;stroke-width:0"
       id="circle24"
       cx="118.49027"
       cy="158.69547"
       r="9.8557291" />
    <circle
       style="fill:currentColor;fill-opacity:1;stroke:none;stroke-width:0"
       id="circle25"
       cx="118.49027"
       cy="87.880081"
       r="9.8557291" />
    <circle
       style="fill:currentColor;fill-opacity:1;stroke:none;stroke-width:0"
       id="circle26"
       cx="177.55087"
       cy="61.790199"
       r="9.8557291" />
    <circle
       style="fill:currentColor;fill-opacity:1;stroke:none;stroke-width:0"
       id="circle27"
       cx="205.07426"
       cy="81.859337"
       r="9.8557291" />
    <circle
       style="fill:currentColor;fill-opacity:1;stroke:none;stroke-width:0"
       id="circle28"
       cx="212.5285"
       cy="103.07528"
       r="9.8557291" />
    <circle
       style="fill:currentColor;fill-opacity:1;stroke:none;stroke-width:0"
       id="circle29"
       cx="173.82375"
       cy="128.01834"
       r="9.8557291" />
    <circle
       style="fill:currentColor;fill-opacity:1;stroke:none;stroke-width:0"
       id="circle30"
       cx="177.55087"
       cy="83.006134"
       r="9.8557291" />
    <circle
       style="fill:currentColor;fill-opacity:1;stroke:none;stroke-width:0"
       id="circle31"
       cx="145.72696"
       cy="99.06144"
       r="9.8557291" />
    <circle
       style="fill:currentColor;fill-opacity:1;stroke:none;stroke-width:0"
       id="circle32"
       cx="141.42644"
       cy="117.98376"
       r="9.8557291" />
    <circle
       style="fill:currentColor;fill-opacity:1;stroke:none;stroke-width:0"
       id="path2"
       cx="118.12522"
       cy="-72.930603"
       r="9.8557291"
       inkscape:transform-center-x="-81.230953"
       inkscape:transform-center-y="22.950968" />
  </g>
</svg>
